External Loads File
version=1
nRows=31
nColumns=13
Range=5.000000e-03-10 seconds
endheader
time 	forceRightX 	forceRightY 	forceRightZ 	pointRightX 	pointRightY 	pointRightZ 	forceLeftX 	forceLeftY 	forceLeftZ 	pointLeftX 	pointLeftY 	pointLeftZ 		
0.005000 25.476677 225.999692 -0.000000 0.120395 0.240267 -0.142147 -126.988397 129.803964 -0.000000 0.421738 0.408988 -0.370417
0.010000 26.685027 226.346586 -0.000000 0.120239 0.240599 -0.142140 -129.423349 130.106204 -0.000000 0.421819 0.408685 -0.370421
0.015000 27.700373 226.735951 -0.000000 0.120112 0.240868 -0.142154 -131.850769 130.575503 -0.000000 0.421895 0.408403 -0.370439
0.020000 28.522148 227.203426 -0.000000 0.120000 0.241152 -0.142169 -134.185319 131.342556 -0.000000 0.421969 0.408102 -0.370470
0.025000 29.068371 227.839874 -0.000000 0.119942 0.241348 -0.142073 -136.478182 132.401559 -0.000000 0.422032 0.407766 -0.370516
0.030000 29.422590 228.734435 -0.000000 0.119819 0.241603 -0.142093 -138.728475 133.784458 -0.000000 0.422091 0.407498 -0.370425
0.035000 29.560729 229.977359 -0.000000 0.119730 0.241839 -0.142104 -141.014330 135.432866 -0.000000 0.422147 0.407270 -0.370424
0.040000 29.594445 231.614810 -0.000000 0.119637 0.242086 -0.142127 -143.347924 137.351235 -0.000000 0.422187 0.407011 -0.370401
0.045000 29.565116 233.671990 -0.000000 0.119539 0.242342 -0.142139 -145.770937 139.473128 -0.000000 0.422249 0.406743 -0.370389
0.050000 29.480410 236.143980 -0.000000 0.119423 0.242601 -0.142169 -148.295725 141.684284 -0.000000 0.422300 0.406495 -0.370373
0.055000 29.369384 238.990258 -0.000000 0.119300 0.242818 -0.142185 -150.869491 143.876854 -0.000000 0.422344 0.406208 -0.370367
0.060000 29.367152 242.134191 -0.000000 0.119163 0.243116 -0.142176 -153.363002 146.023089 -0.000000 0.422495 0.405893 -0.370216
0.065000 29.323284 245.520154 -0.000000 0.119001 0.243400 -0.142142 -155.845137 147.936585 -0.000000 0.422549 0.405641 -0.370246
0.070000 29.328518 249.054017 -0.000000 0.118846 0.243664 -0.142142 -158.264192 149.616277 -0.000000 0.422604 0.405380 -0.370223
0.075000 29.421810 252.637754 -0.000000 0.118702 0.243911 -0.142183 -160.599053 151.077016 -0.000000 0.422672 0.405093 -0.370192
0.080000 29.632958 256.161904 -0.000000 0.118577 0.244197 -0.142175 -162.822479 152.380293 -0.000000 0.422697 0.404768 -0.370273
0.085000 29.895678 259.521249 -0.000000 0.118427 0.244439 -0.142148 -164.965086 153.565156 -0.000000 0.422748 0.404464 -0.370293
0.090000 30.244351 262.605739 -0.000000 0.118243 0.244690 -0.142068 -167.011694 154.753638 -0.000000 0.422802 0.404133 -0.370304
0.095000 30.495335 265.357282 -0.000000 0.118103 0.244987 -0.142132 -169.084121 155.931004 -0.000000 0.422721 0.403909 -0.370502
0.100000 30.890821 267.714581 -0.000000 0.117873 0.245307 -0.142048 -171.045031 157.334351 -0.000000 0.422886 0.403623 -0.370319
0.105000 31.070702 269.732478 -0.000000 0.117711 0.245596 -0.142051 -173.090406 158.772055 -0.000000 0.422769 0.403349 -0.370479
0.110000 31.179914 271.437214 -0.000000 0.117577 0.245864 -0.142090 -175.097689 160.325278 -0.000000 0.422782 0.403100 -0.370515
0.115000 31.176596 272.892703 -0.000000 0.117460 0.246090 -0.142075 -177.049411 161.933842 -0.000000 0.422788 0.402841 -0.370493
0.120000 31.110417 274.169702 -0.000000 0.117333 0.246331 -0.142060 -178.892944 163.600002 -0.000000 0.422782 0.402586 -0.370467
0.125000 30.964528 275.364674 -0.000000 0.117183 0.246546 -0.142033 -180.642865 165.280807 -0.000000 0.422742 0.402367 -0.370463
0.130000 30.847107 276.561582 -0.000000 0.117042 0.246788 -0.142018 -182.263022 167.002419 -0.000000 0.422724 0.402166 -0.370489
0.135000 30.796294 277.831008 -0.000000 0.116861 0.247028 -0.141970 -183.778947 168.744303 -0.000000 0.422691 0.401960 -0.370460
0.140000 30.815986 279.218666 -0.000000 0.116691 0.247253 -0.141960 -185.249442 170.475131 -0.000000 0.422642 0.401733 -0.370415
0.145000 30.933152 280.746174 -0.000000 0.116536 0.247500 -0.142000 -186.714513 172.191695 -0.000000 0.422585 0.401487 -0.370440
0.150000 31.075752 282.434104 -0.000000 0.116395 0.247711 -0.142021 -188.251467 173.838989 -0.000000 0.422513 0.401239 -0.370461
0.155000 31.251545 284.289885 -0.000000 0.116259 0.247952 -0.142050 -189.851368 175.432620 -0.000000 0.422437 0.401019 -0.370458
